<svg xmlns="http://www.w3.org/2000/svg" xmlns:xlink="http://www.w3.org/1999/xlink" width="42" height="95" viewBox="0 0 42 95"><defs><clipPath id="b"><rect width="42" height="95"/></clipPath></defs><g id="a" clip-path="url(#b)"><path d="M-307.714,16.5s-1.429,23.063-2.714,24.528-.571,2.929,0,3.222-.571,7.615-1.286,7.907-.857,4.979-.857,4.979,4.313.355,9.652.293h.062c5,0,8.714-.293,8.714-.293s.143-4.979-.714-4.979-1.286-7.468-1-7.907a2.767,2.767,0,0,0,0-3.222C-296.857,39.417-299,16.5-299,16.5" transform="translate(324 36)" fill="#e6c896" stroke="#d9bb89" stroke-width="1"/><path d="M-323.286.571l4.571-2s7.429,5.714,14.857,5.286,15.143-1.571,16.286-2.714S-283,2.571-283,2.571V18.286L-287.571,20s-11.714-4.714-16.286-4.429S-317.143,20.286-318.714,22s-4.571-2.286-4.571-2.286Z" transform="translate(324 37)" fill="#e6c896" stroke="#d9bb89" stroke-width="1"/><path d="M-305,3.429l1-17.857,2.143,17.857" transform="translate(324 37)" fill="#e6c896" stroke="#d9bb89" stroke-width="1"/><path d="M-319.143-1.429V22.286" transform="translate(324 37)" fill="none" stroke="#d9bb89" stroke-width="1"/><path d="M-287.714-.286v18.5" transform="translate(323.949 38.804)" fill="none" stroke="#d9bb89" stroke-width="1"/><path d="M-310.714,40.429H-296" transform="translate(324 37)" fill="none" stroke="#d9bb89" stroke-width="1"/><path d="M-310.714,43.286H-296" transform="translate(324 37)" fill="none" stroke="#d9bb89" stroke-width="1"/><path d="M-311.429,51h16.143" transform="translate(324 37)" fill="none" stroke="#d9bb89" stroke-width="1"/><ellipse cx="14.5" cy="14" rx="14.5" ry="14" transform="translate(7 13)" fill="#f50707"/></g></svg>