<svg id="Layer_1" data-name="Layer 1" xmlns="http://www.w3.org/2000/svg" viewBox="0 0 53.04 58.02"><defs><style>.cls-1{fill:#4b4b4b;}</style></defs><title>player</title><path class="cls-1" d="M26.46,58C19.21,58,12,57.86,4.84,56.34-.4,55.22-1.29,53,1.7,48.46c2.08-3.14,5.17-5,8.48-6.57,1.35-.63,2.77-1.15,4.12-1.78,5.64-2.63,6.67-5.34,4.23-11-1.17-2.72-1.82-5.59-3.79-8-1.24-1.54-1.2-3.59-.4-5.94,1-3,.86-6.57.86-9.89,0-1.49.15-2.33,1.68-2.74C19.29,1.83,21.64.94,24.06.33,30.61-1.32,40.31,3.27,38.24,12.4c-.22.94-.48,2,.29,2.87,1.82,2,1,4.35-.27,5.84-2.13,2.51-2.68,5.56-3.92,8.37-2.26,5.15-1.29,7.81,3.8,10.33,3.13,1.54,6.53,2.57,9.29,4.79a20.1,20.1,0,0,1,3.71,3.66c3.3,4.52,2.33,7-3,8.1C41,57.87,33.71,58,26.46,58Z"/></svg>